<svg width="305" height="167" viewBox="0 0 305 167" fill="none" xmlns="http://www.w3.org/2000/svg">
<path d="M53.2532 72.6982C53.0254 71.149 46.965 42.9558 96.018 38.5615C96.018 38.5615 134.801 41.8344 129.562 68.9269C124.322 96.0195 107.968 98.3827 98.1156 99.0597C88.2633 99.7367 57.0262 98.3828 53.2532 72.6982Z" fill="#ECE7E4"/>
<path d="M122.5 91.6302L103.554 99.1811C103.554 99.1811 127.896 92.2449 125.594 67.2C123.292 42.1551 95.7476 38.8615 95.7476 38.8615C95.7476 38.8615 112.23 38.5417 123.729 48.759C135.228 58.9763 133.999 80.7193 122.5 91.6302Z" fill="#E1D4C6"/>
<path d="M96.063 34.1367C95.8352 32.5875 89.7748 4.39428 138.828 0C138.828 0 177.611 3.27287 172.371 30.3654C167.132 57.458 150.778 59.8212 140.925 60.4982C131.073 61.1752 99.836 59.8212 96.063 34.1367Z" fill="#ECE7E4"/>
<path d="M165.309 53.0668L146.363 60.6176C146.363 60.6176 170.705 53.6815 168.403 28.6365C166.101 3.59161 138.557 0.297985 138.557 0.297985C138.557 0.297985 155.039 -0.021819 166.538 10.1955C178.037 20.4128 176.808 42.1558 165.309 53.0668Z" fill="#E1D4C6"/>
<path d="M117.468 73.4858C117.24 71.9366 111.18 43.7434 160.233 39.3491C160.233 39.3491 199.016 42.622 193.776 69.7145C188.537 96.8071 172.183 99.1703 162.33 99.8473C152.478 100.524 121.241 99.1704 117.468 73.4858Z" fill="#ECE7E4"/>
<path d="M186.714 92.4159L167.768 99.9667C167.768 99.9667 192.11 93.0306 189.808 67.9857C187.506 42.9407 159.962 39.6471 159.962 39.6471C159.962 39.6471 176.444 39.3273 187.943 49.5446C199.442 59.762 198.213 81.5049 186.714 92.4159Z" fill="#E1D4C6"/>
<path d="M172.671 49.0244C172.443 47.4752 166.382 19.282 215.435 14.8877C215.435 14.8877 254.218 18.1606 248.979 45.2531C243.74 72.3456 227.385 74.7089 217.533 75.3859C207.681 76.0629 176.444 74.7089 172.671 49.0244Z" fill="#ECE7E4"/>
<path d="M241.916 67.9525L222.971 75.5034C222.971 75.5034 247.312 68.5672 245.011 43.5223C242.709 18.4774 215.164 15.1837 215.164 15.1837C215.164 15.1837 231.646 14.8639 243.146 25.0813C254.645 35.2986 253.416 57.0416 241.916 67.9525Z" fill="#E1D4C6"/>
<path d="M9.50739 158.412C7.95063 158.412 6.51618 158.056 5.20405 157.345C3.91415 156.611 2.89114 155.621 2.13499 154.376C1.37885 153.108 1.00078 151.729 1.00078 150.239C1.00078 148.727 1.36773 147.348 2.10163 146.102C2.85778 144.857 3.89191 143.878 5.20405 143.167C6.51618 142.433 7.96175 142.066 9.54075 142.066C10.8751 142.066 12.1317 142.333 13.3103 142.867C14.5113 143.4 15.5232 144.168 16.346 145.168L12.7432 148.704C12.2762 148.082 11.7869 147.637 11.2754 147.37C10.7639 147.081 10.1857 146.936 9.54075 146.936C8.58445 146.936 7.79495 147.237 7.17224 147.837C6.57178 148.438 6.27154 149.227 6.27154 150.206C6.27154 151.206 6.57178 152.018 7.17224 152.641C7.77271 153.241 8.56221 153.542 9.54075 153.542C10.1857 153.542 10.775 153.397 11.3088 153.108C11.8648 152.797 12.3985 152.318 12.91 151.673L16.5128 155.276C15.69 156.255 14.6558 157.022 13.4104 157.578C12.1873 158.134 10.8862 158.412 9.50739 158.412ZM26.0458 146.97C28.1585 146.97 29.7598 147.47 30.8495 148.471C31.9615 149.449 32.5175 150.773 32.5175 152.441C32.5175 154.086 31.9615 155.41 30.8495 156.41C29.7375 157.411 28.1363 157.912 26.0458 157.912H18.6734V142.566H23.8774V146.97H26.0458ZM33.9853 157.912V142.566H39.1893V157.912H33.9853ZM25.4787 153.742C26.0346 153.742 26.4794 153.608 26.813 153.341C27.1466 153.075 27.3134 152.719 27.3134 152.274C27.3134 151.829 27.1466 151.473 26.813 151.206C26.4794 150.94 26.0346 150.806 25.4787 150.806H23.8774V153.742H25.4787ZM51.3269 142.566H56.5309V157.912H51.3269V153.708C50.6375 153.886 49.848 153.975 48.9584 153.975C46.6232 153.975 44.8774 153.397 43.721 152.241C42.5868 151.084 42.0196 149.327 42.0196 146.97V142.566H47.2237V146.936C47.2237 147.67 47.4238 148.249 47.8242 148.671C48.2245 149.094 48.8027 149.305 49.5588 149.305C50.1815 149.305 50.7709 149.238 51.3269 149.105V142.566ZM66.8567 151.64L69.5254 142.566H74.8629L66.0894 166.251H60.8186L63.7876 158.279L58.1833 142.566H63.7209L66.8567 151.64ZM94.9235 150.072L100.394 157.912H94.3898L89.7195 150.739V157.912H84.7156V150.739L80.0453 157.912H74.0406L79.5116 150.072L74.4409 142.566H80.1454L84.7156 149.705V142.566H89.7195V149.705L94.2897 142.566H99.9941L94.9235 150.072ZM111.354 147.737V142.566H116.558V157.912H111.354V152.407H106.917V157.912H101.713V142.566H106.917V147.737H111.354ZM127.264 146.97C129.377 146.97 130.978 147.47 132.068 148.471C133.179 149.449 133.735 150.773 133.735 152.441C133.735 154.086 133.179 155.41 132.068 156.41C130.956 157.411 129.354 157.912 127.264 157.912H119.891V142.566H125.095V146.97H127.264ZM135.203 157.912V142.566H140.407V157.912H135.203ZM126.697 153.742C127.253 153.742 127.697 153.608 128.031 153.341C128.365 153.075 128.531 152.719 128.531 152.274C128.531 151.829 128.365 151.473 128.031 151.206C127.697 150.94 127.253 150.806 126.697 150.806H125.095V153.742H126.697ZM148.942 150.172L155.747 142.233H159.083V157.912H153.879V150.306L147.074 158.245H143.738V142.566H148.942V150.172ZM151.678 140.765C150.054 140.765 148.742 140.265 147.741 139.264C146.74 138.241 146.24 136.895 146.24 135.227H150.176C150.176 135.85 150.31 136.339 150.577 136.695C150.844 137.051 151.211 137.229 151.678 137.229C152.145 137.229 152.512 137.051 152.778 136.695C153.045 136.339 153.179 135.85 153.179 135.227H157.115C157.115 136.895 156.615 138.241 155.614 139.264C154.613 140.265 153.301 140.765 151.678 140.765ZM190.418 150.239C190.418 151.751 190.062 153.13 189.35 154.376C188.638 155.599 187.66 156.577 186.414 157.311C185.169 158.023 183.779 158.39 182.245 158.412V166.251H177.241V158.412C175.706 158.39 174.316 158.023 173.071 157.311C171.825 156.577 170.847 155.599 170.135 154.376C169.423 153.13 169.068 151.751 169.068 150.239C169.068 148.727 169.412 147.359 170.102 146.136C170.813 144.89 171.792 143.912 173.037 143.2C174.283 142.466 175.684 142.088 177.241 142.066V134.227H182.245V142.066C183.801 142.088 185.202 142.466 186.448 143.2C187.693 143.912 188.661 144.89 189.35 146.136C190.062 147.359 190.418 148.727 190.418 150.239ZM174.338 150.239C174.338 151.284 174.594 152.129 175.106 152.774C175.639 153.397 176.351 153.731 177.241 153.775V146.703C176.307 146.77 175.584 147.125 175.072 147.77C174.583 148.415 174.338 149.238 174.338 150.239ZM182.245 153.775C183.134 153.731 183.835 153.397 184.346 152.774C184.88 152.129 185.147 151.284 185.147 150.239C185.147 149.238 184.891 148.415 184.38 147.77C183.89 147.125 183.179 146.77 182.245 146.703V153.775ZM208.438 149.372C208.438 150.239 208.382 151.04 208.271 151.774H197.897C198.163 152.552 198.597 153.163 199.198 153.608C199.798 154.031 200.565 154.242 201.499 154.242C202.967 154.242 204.257 153.697 205.369 152.607L207.871 155.576C206.959 156.488 205.892 157.189 204.668 157.678C203.468 158.167 202.189 158.412 200.832 158.412C199.186 158.412 197.73 158.067 196.462 157.378C195.194 156.688 194.205 155.732 193.493 154.509C192.781 153.286 192.426 151.885 192.426 150.306C192.426 148.749 192.77 147.348 193.46 146.102C194.171 144.835 195.139 143.845 196.362 143.133C197.607 142.422 199.009 142.066 200.565 142.066C202.033 142.066 203.367 142.388 204.568 143.033C205.769 143.678 206.715 144.557 207.404 145.669C208.093 146.781 208.438 148.015 208.438 149.372ZM200.532 145.902C199.843 145.902 199.242 146.114 198.731 146.536C198.241 146.959 197.908 147.592 197.73 148.438H203.134C203.023 147.659 202.734 147.048 202.267 146.603C201.822 146.136 201.244 145.902 200.532 145.902ZM220.649 142.066C222.005 142.066 223.24 142.422 224.352 143.133C225.464 143.845 226.342 144.835 226.987 146.102C227.632 147.348 227.955 148.727 227.955 150.239C227.955 151.751 227.632 153.141 226.987 154.409C226.342 155.654 225.464 156.633 224.352 157.345C223.24 158.056 222.005 158.412 220.649 158.412C218.959 158.412 217.513 157.845 216.312 156.711V166.251H211.108V142.566H216.112V143.967C217.335 142.7 218.847 142.066 220.649 142.066ZM219.448 153.542C220.382 153.542 221.149 153.23 221.75 152.607C222.372 151.985 222.684 151.195 222.684 150.239C222.684 149.283 222.372 148.493 221.75 147.87C221.149 147.248 220.382 146.936 219.448 146.936C218.492 146.936 217.702 147.248 217.079 147.87C216.479 148.493 216.179 149.283 216.179 150.239C216.179 151.195 216.479 151.985 217.079 152.607C217.702 153.23 218.492 153.542 219.448 153.542ZM239.796 149.538L245.634 142.233H248.97V157.912H243.766V151.44L240.963 154.909H238.628L235.826 151.44V157.912H230.622V142.233H233.958L239.796 149.538ZM267.664 149.372C267.664 150.239 267.608 151.04 267.497 151.774H257.122C257.389 152.552 257.823 153.163 258.423 153.608C259.024 154.031 259.791 154.242 260.725 154.242C262.193 154.242 263.483 153.697 264.595 152.607L267.097 155.576C266.185 156.488 265.117 157.189 263.894 157.678C262.693 158.167 261.415 158.412 260.058 158.412C258.412 158.412 256.955 158.067 255.688 157.378C254.42 156.688 253.431 155.732 252.719 154.509C252.007 153.286 251.651 151.885 251.651 150.306C251.651 148.749 251.996 147.348 252.686 146.102C253.397 144.835 254.365 143.845 255.588 143.133C256.833 142.422 258.234 142.066 259.791 142.066C261.259 142.066 262.593 142.388 263.794 143.033C264.995 143.678 265.94 144.557 266.63 145.669C267.319 146.781 267.664 148.015 267.664 149.372ZM259.758 145.902C259.068 145.902 258.468 146.114 257.956 146.536C257.467 146.959 257.133 147.592 256.955 148.438H262.36C262.248 147.659 261.959 147.048 261.492 146.603C261.048 146.136 260.469 145.902 259.758 145.902ZM279.975 147.737V142.566H285.179V157.912H279.975V152.407H275.538V157.912H270.334V142.566H275.538V147.737H279.975ZM296.952 157.912H291.748V147.237H287.511V142.566H301.189V147.237H296.952V157.912Z" fill="#FFF422"/>
</svg>
