<svg width="117" height="210" viewBox="0 0 117 210" fill="none" xmlns="http://www.w3.org/2000/svg">
<rect x="37.5632" width="30.2029" height="10.181" fill="#4C4957"/>
<path d="M10.2644 156.109L18.396 164.593H92.7416L100.292 156.109V48.7835L63.7004 17.8162V11.0288H42.2098V15.2709L10.2644 48.7835V156.109Z" fill="#C6B69C"/>
<path d="M10.8418 200.764L16.6796 193.458H20.0156V209.137H14.8115V202.665L12.0093 206.134H9.67419L6.87201 202.665V209.137H1.66796V193.458H5.00389L10.8418 200.764ZM31.1039 209.637C29.5471 209.637 28.1238 209.281 26.8339 208.57C25.5662 207.836 24.5543 206.846 23.7982 205.601C23.0643 204.355 22.6973 202.976 22.6973 201.464C22.6973 199.952 23.0643 198.573 23.7982 197.328C24.5543 196.082 25.5662 195.104 26.8339 194.392C28.1238 193.658 29.5471 193.291 31.1039 193.291C32.6606 193.291 34.0728 193.658 35.3405 194.392C36.6304 195.104 37.6423 196.082 38.3762 197.328C39.1323 198.573 39.5104 199.952 39.5104 201.464C39.5104 202.976 39.1323 204.355 38.3762 205.601C37.6423 206.846 36.6304 207.836 35.3405 208.57C34.0728 209.281 32.6606 209.637 31.1039 209.637ZM31.1039 204.7C32.0157 204.7 32.7496 204.411 33.3056 203.833C33.8838 203.232 34.1729 202.443 34.1729 201.464C34.1729 200.486 33.8838 199.707 33.3056 199.129C32.7496 198.528 32.0157 198.228 31.1039 198.228C30.1921 198.228 29.447 198.528 28.8688 199.129C28.3128 199.707 28.0348 200.486 28.0348 201.464C28.0348 202.443 28.3128 203.232 28.8688 203.833C29.447 204.411 30.1921 204.7 31.1039 204.7ZM41.9764 209.47C41.3982 209.47 40.9756 209.437 40.7087 209.37V204.133C40.9756 204.222 41.2536 204.266 41.5427 204.266C41.9875 204.266 42.31 204.111 42.5101 203.799C42.7103 203.466 42.8215 202.932 42.8437 202.198L43.1106 193.791H56.7212V209.137H51.5171V198.462H48.1145L47.9811 202.198C47.8921 204.733 47.3695 206.579 46.4132 207.736C45.4569 208.892 43.9779 209.47 41.9764 209.47ZM67.786 209.637C66.2293 209.637 64.8059 209.281 63.516 208.57C62.2484 207.836 61.2365 206.846 60.4804 205.601C59.7464 204.355 59.3795 202.976 59.3795 201.464C59.3795 199.952 59.7464 198.573 60.4804 197.328C61.2365 196.082 62.2484 195.104 63.516 194.392C64.8059 193.658 66.2293 193.291 67.786 193.291C69.3428 193.291 70.755 193.658 72.0227 194.392C73.3126 195.104 74.3244 196.082 75.0584 197.328C75.8145 198.573 76.1926 199.952 76.1926 201.464C76.1926 202.976 75.8145 204.355 75.0584 205.601C74.3244 206.846 73.3126 207.836 72.0227 208.57C70.755 209.281 69.3428 209.637 67.786 209.637ZM67.786 204.7C68.6979 204.7 69.4318 204.411 69.9877 203.833C70.566 203.232 70.8551 202.443 70.8551 201.464C70.8551 200.486 70.566 199.707 69.9877 199.129C69.4318 198.528 68.6979 198.228 67.786 198.228C66.8742 198.228 66.1292 198.528 65.551 199.129C64.995 199.707 64.717 200.486 64.717 201.464C64.717 202.443 64.995 203.232 65.551 203.833C66.1292 204.411 66.8742 204.7 67.786 204.7ZM89.2845 201.264L94.7221 209.137H88.7174L84.0805 201.964V209.137H78.8764V193.791H84.0805V200.93L88.6173 193.791H94.3218L89.2845 201.264ZM102.774 209.637C101.217 209.637 99.7941 209.281 98.5042 208.57C97.2365 207.836 96.2246 206.846 95.4685 205.601C94.7346 204.355 94.3676 202.976 94.3676 201.464C94.3676 199.952 94.7346 198.573 95.4685 197.328C96.2246 196.082 97.2365 195.104 98.5042 194.392C99.7941 193.658 101.217 193.291 102.774 193.291C104.331 193.291 105.743 193.658 107.011 194.392C108.301 195.104 109.313 196.082 110.046 197.328C110.803 198.573 111.181 199.952 111.181 201.464C111.181 202.976 110.803 204.355 110.046 205.601C109.313 206.846 108.301 207.836 107.011 208.57C105.743 209.281 104.331 209.637 102.774 209.637ZM102.774 204.7C103.686 204.7 104.42 204.411 104.976 203.833C105.554 203.232 105.843 202.443 105.843 201.464C105.843 200.486 105.554 199.707 104.976 199.129C104.42 198.528 103.686 198.228 102.774 198.228C101.862 198.228 101.117 198.528 100.539 199.129C99.9831 199.707 99.7051 200.486 99.7051 201.464C99.7051 202.443 99.9831 203.232 100.539 203.833C101.117 204.411 101.862 204.7 102.774 204.7Z" fill="#FFF422"/>
</svg>
