<svg width="467" height="447" viewBox="0 0 467 447" fill="none" xmlns="http://www.w3.org/2000/svg">
<g clip-path="url(#clip0_556_13561)">
<path d="M319.345 211.319C336.034 204.516 372.737 192.025 386.043 196.487C399.348 200.949 392.102 223.521 386.816 234.249C377.33 239.718 359.075 249.369 361.939 244.218C364.802 239.067 371.366 237.13 374.29 236.805C367.71 237.196 356.05 236.938 362.051 232.778C368.053 228.618 371.332 228.302 372.221 228.664L371.43 226.787C366.054 227.748 356.175 228.758 359.671 225.109C362.962 221.674 365.774 219.084 366.962 218.047C361.96 222.316 348.834 229.247 334.595 224.109C331.144 223.182 323.262 219.327 319.345 211.319Z" fill="#D1C6B4"/>
<path d="M319.345 211.319C336.034 204.516 372.737 192.025 386.043 196.487C399.348 200.949 392.102 223.521 386.816 234.249C377.33 239.718 359.075 249.369 361.939 244.218C364.802 239.067 371.366 237.13 374.29 236.805C367.71 237.196 356.05 236.938 362.051 232.778C368.053 228.618 371.332 228.302 372.221 228.664L371.43 226.787C366.054 227.748 356.175 228.758 359.671 225.109C363.167 221.46 366.123 218.764 367.165 217.872C362.323 222.121 349.032 229.318 334.595 224.109C331.144 223.182 323.262 219.327 319.345 211.319Z" stroke="black" stroke-width="1.12999"/>
<path d="M394.664 113.88L374.209 113.132C374.209 113.132 367.302 72.5099 326.23 71.6072C326.23 71.6072 291.791 80.8366 266.35 96.3694L133.792 101.347C133.792 101.347 193.359 134.737 224.361 128.716C255.364 122.695 261.411 111.798 261.411 111.798C261.411 111.798 272.075 121.666 259.579 155.436C247.083 189.207 234.501 211.272 234.501 211.272C234.501 211.272 203.941 243.558 182.957 261.167C161.972 278.775 142.546 297.658 145.76 334.812C148.974 371.965 134.952 402.689 134.952 402.689C134.952 402.689 126.661 431.062 171.235 429.082C215.809 427.101 168.431 419.966 168.431 419.966L153.791 423.882L140.347 414.524C140.347 414.524 176.799 384.234 192.017 382.197C207.234 380.159 236.591 357.331 236.591 357.331C236.591 357.331 288.883 344.182 310.491 361.007L339.482 327.441C339.482 327.441 321.065 329.582 320.102 336.928C319.14 344.274 310.287 354.617 310.287 354.617C310.287 354.617 321.336 325.689 300.149 310.202C278.961 294.716 242.662 287.395 242.662 287.395L285.177 297.789L292.143 280.389C292.143 280.389 345.546 291.831 370.574 264.477C370.574 264.477 380.886 263.655 382.329 247.367C383.772 231.079 375.031 225.552 375.031 225.552C375.031 225.552 357.05 224.336 356.882 227.61C356.715 230.884 374.904 230.869 374.904 230.869L376.924 235.526C376.924 235.526 360.987 230.451 355.277 235.732C349.567 241.013 377.128 241.917 377.128 241.917L375.928 247.565C375.928 247.565 360.92 244.553 362.073 248.302C363.226 252.051 374.53 254.449 374.53 254.449C374.53 254.449 371.315 263.066 360.509 262.286C349.703 261.507 325.624 251.895 325.624 251.895C325.624 251.895 305.429 233.935 314.887 216.996C324.346 200.056 346.161 169.872 366.366 163.069C386.571 156.266 394.614 130.906 394.614 130.906L394.654 113.875L394.664 113.88Z" fill="#D1C6B4" stroke="black" stroke-width="2.4772" stroke-miterlimit="10"/>
<path d="M241.752 273.005C241.752 273.005 275.198 272.988 292.144 280.389" stroke="black" stroke-width="0.825732" stroke-miterlimit="10"/>
<path d="M363.738 131.61C363.738 131.61 365.656 114.001 349.84 118.866C334.024 123.732 349.321 141.669 356.218 137.042C369.45 128.159 365.666 128.468 363.738 131.61Z" fill="black"/>
<path d="M394.637 125.223L384.218 121.88L394.664 113.88L394.637 125.223Z" fill="#B48C84"/>
<path d="M353.386 149.464L289.396 164.631" stroke="black" stroke-width="0.825732" stroke-miterlimit="10"/>
<path d="M355.366 155.896L300.688 172.717" stroke="black" stroke-width="0.825732" stroke-miterlimit="10"/>
<path d="M361.443 154.026L350.085 192.146" stroke="black" stroke-width="0.825732" stroke-miterlimit="10"/>
<path d="M347.096 107.391C347.096 107.391 339.592 90.33 336.356 126.539" stroke="black" stroke-width="0.825732" stroke-miterlimit="10"/>
<path d="M133.784 101.349C133.784 101.349 123.289 101.019 109.335 102.192C82.6935 104.444 43.4543 112.196 40.6942 138.272C36.4848 178.002 80.3995 215.836 107.864 224.993C135.329 234.151 178.437 237.909 212.772 207.39C247.106 176.871 259.579 155.436 259.579 155.436C259.579 155.436 272.169 119.106 261.411 111.797C261.411 111.797 242.933 131.909 206.767 128.755C170.6 125.6 133.792 101.347 133.792 101.347L133.784 101.349Z" fill="#FC6B50" stroke="black" stroke-width="2.4772" stroke-miterlimit="10"/>
<path d="M286.67 85.8416C286.67 85.8416 254.854 91.4651 235.623 87.1093C216.391 82.7536 181.565 77.329 181.565 77.329C181.565 77.329 120.626 62.7887 109.404 83.0959C109.404 83.0959 103.016 93.277 109.343 102.19L177.86 99.6867L266.347 96.3613L286.678 85.8392L286.67 85.8416Z" fill="#B48C84" stroke="black" stroke-width="1.65146" stroke-miterlimit="10"/>
<path d="M162.036 299.66C162.036 299.66 82.3582 394.098 62.9189 379.516C62.9189 379.516 3.5333 358.062 35.8585 310.321C71.3295 257.934 73.5031 309.358 73.5031 309.358" stroke="#D1C6B4" stroke-width="3.38997" stroke-miterlimit="10" stroke-linecap="round"/>
<path d="M354.515 245.315C349.544 237.631 357.34 232.697 361.86 231.19L374.29 231.19L375.985 235.145L365.25 233.45C363.178 233.262 358.244 233.676 355.08 236.84C351.916 240.004 369.581 241.548 378.81 241.925L376.55 248.705C373.725 247.575 367.058 245.767 362.99 247.575C358.922 249.383 369.581 252.472 375.42 253.79C372.708 260.57 367.133 261.888 364.685 261.7C365.25 254.92 360.73 254.92 354.515 245.315Z" fill="#D1C6B4" stroke="black" stroke-width="1.12999"/>
<path d="M336.422 206.056L318.227 233.238L329.589 269.846L348.089 242.534L336.422 206.056Z" fill="#FEDE56"/>
<path d="M386.845 243.808L348.165 242.467L336.497 205.987L374.866 209.956C374.866 209.956 370.082 209.279 371.453 214.584C372.827 219.894 379.557 225.109 379.557 225.109L386.847 243.812L386.845 243.808Z" fill="#FFB923"/>
<path d="M362.752 264.956L386.669 243.452L348.074 242.449L329.382 269.432L362.752 264.956Z" fill="#F6A117"/>
<path d="M338.891 237.561C338.891 237.561 345.273 246.306 337.425 248.269C337.425 248.269 334.542 246.856 335.813 241.573C337.084 236.289 338.889 237.556 338.889 237.556L338.891 237.561Z" fill="#F8AB18"/>
<path d="M330.815 241.904C330.815 241.904 334.896 240.799 334.097 232.221C333.297 223.643 330.11 224.499 330.11 224.499C330.11 224.499 325.451 226.856 326.249 233.475C327.046 240.094 329.67 242.442 330.817 241.909L330.815 241.904Z" fill="#F49513"/>
<path d="M356.739 226.979C356.739 226.979 351.388 232.95 346.129 222.907C340.871 212.864 347.943 213.717 347.943 213.717C347.943 213.717 352.474 214.362 354.98 219.237C357.485 224.112 356.739 226.979 356.739 226.979Z" fill="#F6A219"/>
<path d="M352.885 257.947C352.885 257.947 354.947 260.241 344.297 264.383C333.647 268.525 333.617 265.382 333.617 265.382C333.617 265.382 332.636 261.981 341.128 258.679C349.621 255.378 352.885 257.947 352.885 257.947Z" fill="#F4960B"/>
<path d="M351.228 252.345C351.228 252.345 346.43 253.335 346.975 251.382C347.52 249.43 350.675 248.532 350.675 248.532C350.675 248.532 354.758 247.556 353.947 249.169C353.136 250.782 351.23 252.349 351.23 252.349L351.228 252.345Z" fill="#DF9C14"/>
</g>
<defs>
<clipPath id="clip0_556_13561">
<rect width="488.941" height="358.805" fill="white" transform="translate(-106.089 143.764) rotate(-17.0994)"/>
</clipPath>
</defs>
</svg>
