<svg width="187" height="136" viewBox="0 0 187 136" fill="none" xmlns="http://www.w3.org/2000/svg">
<path d="M58.1943 127.23H52.9902V111.885H67.6683V127.23H62.4643V116.556H58.1943V127.23ZM80.5463 111.385C81.9029 111.385 83.1372 111.741 84.2492 112.452C85.3611 113.164 86.2396 114.154 86.8845 115.421C87.5295 116.667 87.852 118.046 87.852 119.558C87.852 121.07 87.5295 122.46 86.8845 123.728C86.2396 124.973 85.3611 125.952 84.2492 126.663C83.1372 127.375 81.9029 127.731 80.5463 127.731C78.8561 127.731 77.4105 127.164 76.2096 126.03V135.57H71.0055V111.885H76.0094V113.286C77.2326 112.019 78.7449 111.385 80.5463 111.385ZM79.3454 122.86C80.2794 122.86 81.0467 122.549 81.6471 121.926C82.2699 121.304 82.5812 120.514 82.5812 119.558C82.5812 118.602 82.2699 117.812 81.6471 117.189C81.0467 116.567 80.2794 116.255 79.3454 116.255C78.3891 116.255 77.5996 116.567 76.9768 117.189C76.3764 117.812 76.0761 118.602 76.0761 119.558C76.0761 120.514 76.3764 121.304 76.9768 121.926C77.5996 122.549 78.3891 122.86 79.3454 122.86ZM105.865 118.69C105.865 119.558 105.809 120.358 105.698 121.092H95.3231C95.59 121.871 96.0237 122.482 96.6242 122.927C97.2246 123.35 97.9919 123.561 98.9259 123.561C100.394 123.561 101.684 123.016 102.796 121.926L105.298 124.895C104.386 125.807 103.318 126.508 102.095 126.997C100.894 127.486 99.6154 127.731 98.2588 127.731C96.613 127.731 95.1563 127.386 93.8887 126.697C92.621 126.007 91.6314 125.051 90.9197 123.828C90.2081 122.605 89.8522 121.204 89.8522 119.625C89.8522 118.068 90.1969 116.667 90.8864 115.421C91.598 114.154 92.5654 113.164 93.7886 112.452C95.034 111.741 96.4351 111.385 97.9919 111.385C99.4597 111.385 100.794 111.707 101.995 112.352C103.196 112.997 104.141 113.876 104.831 114.988C105.52 116.1 105.865 117.334 105.865 118.69ZM97.9585 115.221C97.2691 115.221 96.6686 115.432 96.1571 115.855C95.6679 116.278 95.3343 116.911 95.1563 117.756H100.561C100.449 116.978 100.16 116.366 99.6932 115.922C99.2484 115.455 98.6702 115.221 97.9585 115.221ZM116.374 127.731C114.817 127.731 113.383 127.375 112.071 126.663C110.781 125.929 109.758 124.94 109.002 123.694C108.246 122.427 107.868 121.048 107.868 119.558C107.868 118.046 108.234 116.667 108.968 115.421C109.725 114.176 110.759 113.197 112.071 112.486C113.383 111.752 114.828 111.385 116.408 111.385C117.742 111.385 118.998 111.652 120.177 112.185C121.378 112.719 122.39 113.486 123.213 114.487L119.61 118.023C119.143 117.401 118.654 116.956 118.142 116.689C117.631 116.4 117.052 116.255 116.408 116.255C115.451 116.255 114.662 116.556 114.039 117.156C113.439 117.756 113.138 118.546 113.138 119.524C113.138 120.525 113.439 121.337 114.039 121.96C114.639 122.56 115.429 122.86 116.408 122.86C117.052 122.86 117.642 122.716 118.176 122.427C118.732 122.115 119.265 121.637 119.777 120.992L123.38 124.595C122.557 125.574 121.523 126.341 120.277 126.897C119.054 127.453 117.753 127.731 116.374 127.731ZM132.728 127.731C131.171 127.731 129.737 127.375 128.425 126.663C127.135 125.929 126.112 124.94 125.356 123.694C124.599 122.427 124.221 121.048 124.221 119.558C124.221 118.046 124.588 116.667 125.322 115.421C126.078 114.176 127.113 113.197 128.425 112.486C129.737 111.752 131.182 111.385 132.761 111.385C134.096 111.385 135.352 111.652 136.531 112.185C137.732 112.719 138.744 113.486 139.567 114.487L135.964 118.023C135.497 117.401 135.008 116.956 134.496 116.689C133.985 116.4 133.406 116.255 132.761 116.255C131.805 116.255 131.016 116.556 130.393 117.156C129.792 117.756 129.492 118.546 129.492 119.524C129.492 120.525 129.792 121.337 130.393 121.96C130.993 122.56 131.783 122.86 132.761 122.86C133.406 122.86 133.996 122.716 134.529 122.427C135.085 122.115 135.619 121.637 136.131 120.992L139.733 124.595C138.911 125.574 137.876 126.341 136.631 126.897C135.408 127.453 134.107 127.731 132.728 127.731Z" fill="#FFF422"/>
<ellipse cx="92.6416" cy="9.09873" rx="92.6416" ry="9.09873" fill="#A49D9D"/>
<line x1="0.641524" y1="8.27197" x2="0.641524" y2="74.4445" stroke="black" stroke-width="1.28305"/>
<line x1="185.924" y1="8.27197" x2="185.924" y2="74.4445" stroke="black" stroke-width="1.28305"/>
<path d="M96.364 85.1972C129.864 85.1972 160.882 81.8886 185.283 74.4445V9.5127C174.031 15.1306 121.317 17.3707 96.364 17.7843C78.1666 17.7843 25.0907 12.2699 0.827393 9.5127V74.4445C20.2656 78.7182 66.5203 85.1972 96.364 85.1972Z" fill="#8A8A8A"/>
</svg>
