<svg width="120" height="171" viewBox="0 0 120 171" fill="none" xmlns="http://www.w3.org/2000/svg">
<rect x="12.2434" width="94.8369" height="125.739" fill="#213A1A"/>
<rect x="12.2434" width="94.8369" height="31.9675" fill="#3B6334"/>
<path d="M9.50739 162.371C7.95063 162.371 6.51618 162.016 5.20405 161.304C3.91415 160.57 2.89114 159.58 2.13499 158.335C1.37885 157.067 1.00078 155.689 1.00078 154.198C1.00078 152.686 1.36773 151.307 2.10163 150.062C2.85778 148.816 3.89191 147.838 5.20405 147.126C6.51618 146.392 7.96175 146.025 9.54075 146.025C10.8751 146.025 12.1317 146.292 13.3103 146.826C14.5113 147.36 15.5232 148.127 16.346 149.128L12.7432 152.664C12.2762 152.041 11.7869 151.596 11.2754 151.33C10.7639 151.04 10.1857 150.896 9.54075 150.896C8.58445 150.896 7.79495 151.196 7.17224 151.797C6.57178 152.397 6.27154 153.187 6.27154 154.165C6.27154 155.166 6.57178 155.978 7.17224 156.6C7.77271 157.201 8.56221 157.501 9.54075 157.501C10.1857 157.501 10.775 157.356 11.3088 157.067C11.8648 156.756 12.3985 156.278 12.91 155.633L16.5128 159.236C15.69 160.214 14.6558 160.982 13.4104 161.538C12.1873 162.093 10.8862 162.371 9.50739 162.371ZM23.8774 161.871H18.6734V146.526H33.3514V161.871H28.1474V151.196H23.8774V161.871ZM52.0339 153.331C52.0339 154.198 51.9783 154.999 51.8671 155.733H41.4924C41.7593 156.511 42.193 157.123 42.7934 157.568C43.3939 157.99 44.1612 158.202 45.0952 158.202C46.563 158.202 47.8529 157.657 48.9649 156.567L51.4668 159.536C50.555 160.448 49.4875 161.148 48.2643 161.638C47.0634 162.127 45.7846 162.371 44.428 162.371C42.7823 162.371 41.3256 162.027 40.058 161.337C38.7903 160.648 37.8007 159.692 37.089 158.468C36.3773 157.245 36.0215 155.844 36.0215 154.265C36.0215 152.708 36.3662 151.307 37.0556 150.062C37.7673 148.794 38.7347 147.805 39.9579 147.093C41.2033 146.381 42.6044 146.025 44.1612 146.025C45.629 146.025 46.9633 146.348 48.1643 146.993C49.3652 147.638 50.3104 148.516 50.9998 149.628C51.6892 150.74 52.0339 151.975 52.0339 153.331ZM44.1278 149.862C43.4384 149.862 42.8379 150.073 42.3264 150.496C41.8371 150.918 41.5035 151.552 41.3256 152.397H46.7298C46.6186 151.619 46.3295 151.007 45.8625 150.562C45.4177 150.095 44.8395 149.862 44.1278 149.862ZM71.5504 166.208H66.5465V161.871H54.704V146.526H59.908V157.201H64.0112V146.526H69.2153V157.201H71.5504V166.208ZM78.7704 154.132L85.5756 146.192H88.9116V161.871H83.7075V154.265L76.9022 162.205H73.5663V146.526H78.7704V154.132ZM97.4372 154.132L104.243 146.192H107.578V161.871H102.374V154.265L95.5691 162.205H92.2332V146.526H97.4372V154.132Z" fill="#FFF422"/>
</svg>
