<svg width="425" height="168" viewBox="0 0 425 168" fill="none" xmlns="http://www.w3.org/2000/svg">
<g clip-path="url(#clip0_529_1438)">
<path d="M357.855 152.968C348.058 152.968 341.603 146.694 341.603 136.197C341.603 122.442 349.395 116.892 374.552 116.892V116.53C374.552 107.361 370.99 103.5 363.421 103.5C357.297 103.5 353.291 105.189 347.835 112.187L342.605 106.034C348.949 98.3118 354.848 95.416 363.977 95.416C380.674 95.416 382.677 107.602 382.677 116.41V151.52H374.552V143.074C370.321 149.348 364.422 152.968 357.855 152.968ZM358.967 145.125C364.422 145.125 368.986 141.867 374.552 132.577V124.252C355.294 124.252 349.728 127.148 349.728 136.197C349.728 142.712 353.178 145.125 358.967 145.125Z" fill="#FFF422"/>
<path d="M293.044 151.519H284.918V96.9844H293.044V119.184H320.871V96.9844H328.998V151.519H320.871V127.389H293.044V151.519Z" fill="#FFF422"/>
<path d="M269.765 151.519H261.64V110.618L232.697 151.519H225.24V96.9841H233.365V137.523L262.196 96.9841H269.765V151.519ZM247.502 86.8492C238.821 86.8492 232.253 83.9536 227.8 75.3873L234.256 70.3198C237.707 76.8351 240.711 78.7654 247.502 78.7654C254.294 78.7654 257.298 76.8351 260.749 70.3198L267.205 75.3873C262.752 83.9536 256.184 86.8492 247.502 86.8492Z" fill="#FFF422"/>
<path d="M185.884 152.968C176.088 152.968 169.632 146.694 169.632 136.197C169.632 122.442 177.424 116.892 202.581 116.892V116.53C202.581 107.361 199.019 103.5 191.45 103.5C185.327 103.5 181.32 105.189 175.865 112.187L170.634 106.034C176.979 98.3118 182.878 95.416 192.006 95.416C208.703 95.416 210.706 107.602 210.706 116.41V151.52H202.581V143.074C198.35 149.348 192.452 152.968 185.884 152.968ZM186.997 145.125C192.452 145.125 197.016 141.867 202.581 132.577V124.252C183.324 124.252 177.758 127.148 177.758 136.197C177.758 142.712 181.209 145.125 186.997 145.125Z" fill="#FFF422"/>
<path d="M141.344 144.883C148.802 144.883 152.475 140.057 152.475 134.869C152.475 130.043 148.245 127.268 142.679 127.268H135.889V119.184H142.679C147.689 119.184 150.917 115.927 150.917 111.462C150.917 106.757 148.245 103.741 142.791 103.741C136.223 103.741 133.663 105.912 128.765 112.066C128.654 111.945 123.311 106.395 123.311 106.395C129.099 98.5525 134.776 95.5361 142.791 95.5361C153.143 95.5361 158.82 102.413 158.82 110.376C158.82 116.168 156.26 120.27 152.252 122.924C157.484 125.458 160.601 129.802 160.601 135.472C160.601 144.28 154.256 153.208 141.344 153.208C133.886 153.208 128.431 150.916 121.864 143.073L127.318 137.282C132.661 143.073 135.444 144.883 141.344 144.883Z" fill="#FFF422"/>
<path d="M66.558 96.9844H74.6838V137.524L103.514 96.9844H111.083V151.519H102.958V110.618L74.0161 151.519H66.558V96.9844Z" fill="#FFF422"/>
<path d="M7.79197 151.519V167.446H0V143.315H6.23356C13.469 130.526 13.469 111.342 13.469 96.9844H48.644V143.315H55.8795V167.446H48.0875V151.519H7.79197ZM40.5182 143.315V105.189H21.5948C21.5948 118.219 20.2591 131.25 15.25 143.315H40.5182Z" fill="#FFF422"/>
<path d="M262.085 57.5514C252.29 57.5514 245.834 51.2774 245.834 40.7807C245.834 27.0263 253.625 21.4763 278.782 21.4763V21.1143C278.782 11.9446 275.222 8.08375 267.651 8.08375C261.529 8.08375 257.521 9.77289 252.068 16.7707L246.835 10.6174C253.182 2.89568 259.081 0 268.209 0C284.904 0 286.909 12.1859 286.909 20.9935V56.1036H278.782V47.6578C274.553 53.9318 268.653 57.5514 262.085 57.5514ZM263.199 49.7091C268.653 49.7091 273.217 46.4514 278.782 37.1611V28.8361C259.526 28.8361 253.96 31.7317 253.96 40.7807C253.96 47.296 257.411 49.7091 263.199 49.7091Z" fill="#FFF422"/>
<path d="M185.63 55.9837V47.2967C186.631 47.7794 188.079 47.8999 188.969 47.8999C196.761 47.8999 198.876 34.9902 198.876 1.56934H233.272V56.1045H225.145V9.77373H206.78C206.78 41.2642 202.661 56.587 189.971 56.587C188.524 56.587 187.077 56.3457 185.63 55.9837Z" fill="#FFF422"/>
<path d="M155.894 8.2044C145.542 8.2044 137.972 17.4947 137.972 28.8361C137.972 40.0567 145.542 49.3471 155.894 49.3471C166.357 49.3471 173.592 40.0567 173.592 28.8361C173.592 17.4947 166.357 8.2044 155.894 8.2044ZM129.846 28.8361C129.846 12.9099 141.2 0 155.894 0C170.587 0 181.718 12.9099 181.718 28.8361C181.718 44.6416 170.587 57.5514 155.894 57.5514C141.2 57.5514 129.846 44.6416 129.846 28.8361Z" fill="#FFF422"/>
<path d="M82.1851 56.1045V1.56934H90.3112V23.7695H94.3184L114.021 1.56934H124.039L101.22 27.3891C108.455 30.6468 113.353 48.0207 122.036 48.0207C123.037 48.0207 124.039 47.7794 125.152 47.2969V56.1045C123.483 56.587 121.924 56.8283 120.588 56.8283C107.119 56.8283 103.446 37.0413 94.9862 31.9738H90.3112V56.1045H82.1851Z" fill="#FFF422"/>
<path d="M31.8364 47.8999V1.56934H39.9622V47.8999H58.8855V1.56934H67.0114V56.1045H4.78708V1.56934H12.913V47.8999H31.8364Z" fill="#FFF422"/>
<path d="M408.278 86.8892C417.383 86.8892 424.781 94.8923 424.876 104.845C424.876 114.798 417.383 122.801 408.278 122.801C399.077 122.801 391.678 114.695 391.678 104.845C391.678 94.8923 399.171 86.8892 408.278 86.8892ZM402.396 92.4298V116.439H415.866V111.925C415.866 107.513 414.537 104.537 411.123 103.203C412.261 102.793 412.831 101.972 413.305 101.459C414.063 100.433 414.444 99.2016 414.444 97.9703C414.444 96.9444 414.158 95.0974 412.64 93.7637C411.597 92.8401 410.649 92.4298 408.371 92.4298H402.396ZM407.619 93.6632C408.474 93.6632 409.706 93.7658 410.561 94.9971C411.035 95.5102 411.319 96.3312 411.414 97.152H407.524V98.3829H411.414C411.414 99.2037 411.224 100.025 410.561 100.948C409.896 101.769 408.948 102.487 407.524 102.487V103.718C411.319 103.718 412.741 106.489 412.836 111.516V115.21H410.371V107.207H407.619V115.21H405.439V93.6632H407.619Z" fill="#FFF422"/>
</g>
<defs>
<clipPath id="clip0_529_1438">
<rect width="425" height="167.587" fill="white"/>
</clipPath>
</defs>
</svg>
